<?xml version="1.0" encoding="UTF-8"?>
<svg width="752pt" height="752pt" version="1.1" viewBox="0 0 752 752" xmlns="http://www.w3.org/2000/svg">
 <g>
  <path d="m523.16 230.23c-18.035-18.223-39.312-33.02-62.805-43.473l-6.0117 13.504c21.738 9.7109 41.531 23.402 58.273 40.328z"/>
  <path d="m297.66 200.26-6.0117-13.504c-51.797 23.215-91.941 66.691-111 120.25l13.969 4.9023c17.664-49.766 54.848-90.094 103.04-111.64z"/>
  <path d="m240.59 512.71c-20.625-20.441-36.352-45.23-46.062-72.516l-13.969 4.9023c10.453 29.414 27.379 56.145 49.578 78.16z"/>
  <path d="m525.48 497.17 11.469 9.25c7.7695-9.6211 14.707-19.887 20.625-30.707l-12.949-7.1211c-5.457 10.078-11.93 19.605-19.145 28.578z"/>
  <path d="m393.11 201.92-23.68-15.816c-6.8438-4.5312-16-2.6836-20.535 4.0703-1.6641 2.4062-2.4961 5.2734-2.4961 8.2305v31.543c0 8.1406 6.6602 14.801 14.801 14.801 2.9609 0 5.8281-0.83203 8.2305-2.4961l23.68-15.816c6.8438-4.5312 8.6016-13.688 4.0703-20.535-1.1094-1.5742-2.4961-2.9609-4.0703-3.9805zm-31.91 28.027v-31.543l23.68 15.816z"/>
  <path d="m450 376c0-32.652-26.547-59.199-59.199-59.199-32.652 0-59.199 26.547-59.199 59.199s26.547 59.199 59.199 59.199c32.652 0 59.199-26.547 59.199-59.199zm-59.199 44.398c-24.512 0-44.398-19.887-44.398-44.398s19.887-44.398 44.398-44.398 44.398 19.887 44.398 44.398-19.887 44.398-44.398 44.398z"/>
  <path d="m383.4 372.95-20.074 19.98 10.547 10.543 24.324-24.418v-32.652h-14.797z"/>
  <path d="m213.21 405.6v-7.3984h37v7.3984c0 12.211 9.9883 22.199 22.199 22.199h14.801c12.211 0 22.199-9.9883 22.199-22.199v-59.199c0-12.211-9.9883-22.199-22.199-22.199h-14.801c-12.211 0-22.199 9.9883-22.199 22.199v7.3984h-37v-7.3984c0-12.211-9.9883-22.199-22.199-22.199h-14.797c-12.211 0-22.199 9.9883-22.199 22.199v59.199c0 12.211 9.9883 22.199 22.199 22.199h14.801c12.207 0 22.195-9.9922 22.195-22.199zm51.801-59.199c0-4.0703 3.3281-7.3984 7.3984-7.3984h14.801c4.0703 0 7.3984 3.3281 7.3984 7.3984v59.199c0 4.0703-3.3281 7.3984-7.3984 7.3984h-14.801c-4.0703 0-7.3984-3.3281-7.3984-7.3984zm-51.801 22.199h37v14.801h-37zm-44.398 37v-59.199c0-4.0703 3.3281-7.3984 7.3984-7.3984h14.801c4.0703 0 7.3984 3.3281 7.3984 7.3984v59.199c0 4.0703-3.3281 7.3984-7.3984 7.3984h-14.797c-4.0703 0-7.4023-3.3281-7.4023-7.3984z"/>
  <path d="m228.01 538.79c-12.301 0-22.199 9.8984-22.199 22.199 0 12.301 9.8984 22.199 22.199 22.199h66.598c6.9375 9.3438 17.945 14.801 29.598 14.801h103.6c20.441 0 37-16.559 37-37v-22.199zm0 29.602c-4.0703 0-7.3984-3.3281-7.3984-7.3984 0-4.0703 3.3281-7.3984 7.3984-7.3984h59.199v7.3984c0 2.4961 0.27734 4.9961 0.73828 7.3984zm221.99-7.4023c0 12.211-9.9883 22.199-22.199 22.199h-103.6c-12.211 0-22.199-9.9883-22.199-22.199v-7.3984h147.99z"/>
  <path d="m368.6 472.2h14.801v14.801h-14.801z"/>
  <path d="m287.2 464.8h14.801v14.801h-14.801z"/>
  <path d="m294.61 509.2h14.801v14.801h-14.801z"/>
  <path d="m316.8 479.6h14.801v14.801h-14.801z"/>
  <path d="m339 501.8h14.801v14.801h-14.801z"/>
  <path d="m339 457.4h14.801v14.801h-14.801z"/>
  <path d="m383.4 509.2h14.801v14.801h-14.801z"/>
  <path d="m538.79 368.14c13.504-1.5742 26.082-7.7695 35.703-17.391l5.6406-5.6406c11.469-11.379 17.945-26.918 17.852-43.102v-7.3984h-7.3984c-16.188 0-31.727 6.3828-43.102 17.852l-5.6406 5.6406c-4.1641 4.1641-7.6758 8.8789-10.453 13.969-2.7734-5.0859-6.2891-9.8047-10.453-13.969l-5.6406-5.6406c-11.379-11.473-26.918-17.855-43.102-17.855h-7.3984v7.3984c0 16.188 6.3828 31.727 17.852 43.102l5.6406 5.6406c9.6211 9.6211 22.199 15.816 35.703 17.391v15.266h-44.398v14.801h8.2305l4.9961 39.773c1.3867 11.098 10.82 19.426 22.016 19.426h33.113c11.191 0 20.625-8.3242 22.016-19.426l4.9961-39.773h8.2305v-14.801h-44.398zm13.508-39.59 5.6406-5.6406c6.6602-6.6602 15.262-11.191 24.605-12.855-1.6641 9.3438-6.1055 17.852-12.855 24.605l-5.6406 5.6406c-6.6602 6.6602-15.262 11.191-24.605 12.855 1.6602-9.3438 6.1953-17.945 12.855-24.605zm-53.559 11.746-5.6406-5.6406c-6.6602-6.6602-11.191-15.262-12.855-24.605 9.3438 1.6641 17.852 6.1055 24.605 12.855l5.6406 5.6406c6.6602 6.6602 11.191 15.262 12.855 24.605-9.3398-1.6641-17.945-6.1953-24.605-12.855zm61.234 57.902-4.7188 37.922c-0.46094 3.6992-3.6055 6.4766-7.3086 6.4766h-33.113c-3.6992 0-6.8438-2.7734-7.3086-6.4766l-4.7188-37.922z"/>
  <path d="m530.37 254.62 16.453-37.02 13.523 6.0117-16.453 37.02z"/>
  <path d="m517.21 284.2 6.5742-14.793 13.523 6.0117-6.5742 14.793z"/>
  <path d="m294.61 279.8c0 12.211 9.9883 22.199 22.199 22.199h118.39c12.211 0 22.199-9.9883 22.199-22.199v-22.199h-14.801v-81.395c0-12.211-9.9883-22.199-22.199-22.199h-88.797c-12.211 0-22.199 9.9883-22.199 22.199v81.398h-14.801zm29.598-103.59c0-4.0703 3.3281-7.3984 7.3984-7.3984h88.797c4.0703 0 7.3984 3.3281 7.3984 7.3984v81.398l-103.59-0.003906zm-14.801 96.195h133.2v7.3984c0 4.0703-3.3281 7.3984-7.3984 7.3984h-118.39c-4.0703 0-7.3984-3.3281-7.3984-7.3984z"/>
  <path d="m487 483.95v-13.043c0-5.918-2.3125-11.562-6.4766-15.723l-14.801-14.801c-8.6953-8.6953-22.754-8.6953-31.355 0l-23.492 23.492c-8.6953 8.6953-8.6953 22.754 0 31.355l14.801 14.801c4.1641 4.1641 9.8047 6.4766 15.723 6.4766h13.043l60.77 60.77c9.0664 8.9727 23.68 8.9727 32.652 0 8.9727-8.9727 8.9727-23.586 0-32.652zm50.227 82.875c-3.2383 3.2383-8.5078 3.2383-11.746 0l-65.027-65.023h-19.148c-1.9414 0-3.8867-0.73828-5.2734-2.1289l-14.801-14.801c-2.8672-2.8672-2.8672-7.5859 0-10.453l23.492-23.492c2.8672-2.8672 7.5859-2.8672 10.453 0l14.801 14.801c1.3867 1.3867 2.1289 3.2383 2.1289 5.2734v19.148l65.023 65.023c3.3359 3.2344 3.3359 8.4141 0.097656 11.652z"/>
  <path d="m567.36 254.62 16.453-37.02 13.523 6.0117-16.453 37.02z"/>
  <path d="m554.21 284.2 6.5742-14.793 13.523 6.0117-6.5742 14.793z"/>
 </g>
</svg>
